<?xml version="1.0" encoding="UTF-8"?>
<svg width="379px" height="375px" viewBox="0 0 379 375" version="1.1" xmlns="http://www.w3.org/2000/svg" xmlns:xlink="http://www.w3.org/1999/xlink">
    <!-- Generator: sketchtool 45.2 (43514) - http://www.bohemiancoding.com/sketch -->
    <title>FFFDBF6A-6C16-459E-B8AA-E28E741D3CDA</title>
    <desc>Created with sketchtool.</desc>
    <defs>
        <linearGradient x1="15.5080289%" y1="12.4455886%" x2="15.5080289%" y2="77.2529381%" id="linearGradient-1">
            <stop stop-color="#D8A1FF" offset="0%"></stop>
            <stop stop-color="#027BFF" offset="100%"></stop>
        </linearGradient>
        <linearGradient x1="100%" y1="1.91422802%" x2="0.841579861%" y2="94.5520833%" id="linearGradient-2">
            <stop stop-color="#C9ECF4" offset="0%"></stop>
            <stop stop-color="#8F84EB" offset="100%"></stop>
        </linearGradient>
        <linearGradient x1="33.72261%" y1="0%" x2="17.5364239%" y2="77.2947279%" id="linearGradient-3">
            <stop stop-color="#FFED05" offset="0%"></stop>
            <stop stop-color="#B95AD7" offset="100%"></stop>
        </linearGradient>
        <linearGradient x1="92.1413527%" y1="50%" x2="17.5364239%" y2="77.2947279%" id="linearGradient-4">
            <stop stop-color="#01DEE9" offset="0%"></stop>
            <stop stop-color="#027BFF" offset="100%"></stop>
        </linearGradient>
        <linearGradient x1="50%" y1="0%" x2="50%" y2="100%" id="linearGradient-5">
            <stop stop-color="#CEE2F6" offset="0%"></stop>
            <stop stop-color="#E9EAEB" offset="100%"></stop>
        </linearGradient>
        <linearGradient x1="28.5600725%" y1="17.5746663%" x2="100%" y2="100%" id="linearGradient-6">
            <stop stop-color="#FAB08F" offset="0%"></stop>
            <stop stop-color="#CA1FD9" offset="100%"></stop>
        </linearGradient>
    </defs>
    <g id="Symbols" stroke="none" stroke-width="1" fill="none" fill-rule="evenodd">
        <g id="Cardgraphic-1" transform="translate(1.000000, 0.000000)">
            <g>
                <circle id="Oval-2" fill="#DBEBF3" opacity="0.363394475" cx="189.013916" cy="192.514208" r="151.697166"></circle>
                <g id="Group-4" transform="translate(0.000000, 0.797328)">
                    <g id="Group-2">
                        <g id="Page-1" transform="translate(0.000000, 132.734148)">
                            <path d="M91.7378153,15.0116425 L68.3863714,15.0116425 L56.7106494,0 L28.3553247,0 L16.6796028,15.0116425 L5.00388083,15.0116425 C2.24007065,15.0116425 0,17.2517132 0,20.0155233 L0,65.0504508 C0,67.814261 2.24007065,70.0543317 5.00388083,70.0543317 L91.7378153,70.0543317 C94.5016255,70.0543317 96.7416961,67.814261 96.7416961,65.0504508 L96.7416961,20.0155233 C96.7416961,17.2517132 94.5016255,15.0116425 91.7378153,15.0116425" id="Fill-1" fill="#FFFFFF"></path>
                            <path d="M91.7378153,15.0116425 L68.3863714,15.0116425 L56.7106494,0 L28.3553247,0 L16.6796028,15.0116425 L5.00388083,15.0116425 C2.24007065,15.0116425 0,17.2517132 0,20.0155233 L0,65.0504508 C0,67.814261 2.24007065,70.0543317 5.00388083,70.0543317 L91.7378153,70.0543317 C94.5016255,70.0543317 96.7416961,67.814261 96.7416961,65.0504508 L96.7416961,20.0155233 C96.7416961,17.2517132 94.5016255,15.0116425 91.7378153,15.0116425 Z" id="Stroke-3" stroke="#2A5082" stroke-width="2"></path>
                            <polyline id="Stroke-5" stroke="#2A5082" stroke-width="2" points="78.3941331 10.0077617 78.3941331 6.67184111 90.069855 6.67184111 90.069855 10.0077617"></polyline>
                            <path d="M66.7184111,38.3630864 C66.7184111,51.2597553 56.2636361,61.7145303 43.3669672,61.7145303 C30.4702984,61.7145303 20.0155233,51.2597553 20.0155233,38.3630864 C20.0155233,25.4664175 30.4702984,15.0116425 43.3669672,15.0116425 C56.2636361,15.0116425 66.7184111,25.4664175 66.7184111,38.3630864" id="Fill-7" fill="url(#linearGradient-1)" opacity="0.54"></path>
                            <path d="M66.7184111,38.3630864 C66.7184111,51.2597553 56.2636361,61.7145303 43.3669672,61.7145303 C30.4702984,61.7145303 20.0155233,51.2597553 20.0155233,38.3630864 C20.0155233,25.4664175 30.4702984,15.0116425 43.3669672,15.0116425 C56.2636361,15.0116425 66.7184111,25.4664175 66.7184111,38.3630864 Z" id="Stroke-9" stroke="#2A5082" stroke-width="2"></path>
                            <path d="M60.04657,38.3630864 C60.04657,47.573563 52.5791118,55.0426892 43.3669672,55.0426892 C34.1548226,55.0426892 26.6873644,47.573563 26.6873644,38.3630864 C26.6873644,29.1526097 34.1548226,21.6834836 43.3669672,21.6834836 C52.5791118,21.6834836 60.04657,29.1526097 60.04657,38.3630864" id="Fill-11" fill="#FFFFFF"></path>
                            <path d="M60.04657,38.3630864 C60.04657,47.573563 52.5791118,55.0426892 43.3669672,55.0426892 C34.1548226,55.0426892 26.6873644,47.573563 26.6873644,38.3630864 C26.6873644,29.1526097 34.1548226,21.6834836 43.3669672,21.6834836 C52.5791118,21.6834836 60.04657,29.1526097 60.04657,38.3630864 Z" id="Stroke-13" stroke="#2A5082" stroke-width="2"></path>
                            <path d="M33.9284804,35.0271658 C35.3028797,31.1391504 39.0090874,28.3553247 43.3674676,28.3553247" id="Stroke-15" stroke="#2A5082" stroke-width="2"></path>
                            <path d="M34.7005792,43.3703031 C33.8465836,41.8974942 33.3595391,40.1878349 33.3595391,38.3630864" id="Stroke-17" stroke="#2A5082" stroke-width="2"></path>
                            <path d="M6.67184111,23.3514439 L16.6796028,23.3514439" id="Stroke-19" stroke="#2A5082" stroke-width="2"></path>
                            <path d="M91.7378153,70.0543317 L76.7261728,70.0543317 L76.7261728,15.0116425 L91.7378153,15.0116425 C94.5016255,15.0116425 96.7416961,17.2517132 96.7416961,20.0155233 L96.7416961,65.0504508 C96.7416961,67.814261 94.5016255,70.0543317 91.7378153,70.0543317" id="Fill-21" fill="url(#linearGradient-1)" opacity="0.53589221"></path>
                            <path d="M91.7378153,70.0543317 L76.7261728,70.0543317 L76.7261728,15.0116425 L91.7378153,15.0116425 C94.5016255,15.0116425 96.7416961,17.2517132 96.7416961,20.0155233 L96.7416961,65.0504508 C96.7416961,67.814261 94.5016255,70.0543317 91.7378153,70.0543317 Z" id="Stroke-23" stroke="#2A5082" stroke-width="2"></path>
                            <path d="M65.0504508,58.3786097 L68.3863714,58.3786097" id="Stroke-25" stroke="#2A5082" stroke-width="2"></path>
                        </g>
                        <g id="Group" transform="translate(296.978101, 103.508281)">
                            <polygon id="Stroke-16" stroke="#2A5082" stroke-width="2" fill="#FFFFFF" points="0.0262469504 62.1075021 79.3409968 62.1075021 79.3409968 0.142853726 0.0262469504 0.142853726"></polygon>
                            <path d="M64.4694812,17.4929553 C64.4694812,21.5999721 61.1407403,24.9287131 57.0337234,24.9287131 C52.9267065,24.9287131 49.5979656,21.5999721 49.5979656,17.4929553 C49.5979656,13.3859384 52.9267065,10.0571975 57.0337234,10.0571975 C61.1407403,10.0571975 64.4694812,13.3859384 64.4694812,17.4929553" id="Fill-18" fill="url(#linearGradient-2)"></path>
                            <path d="M64.4694812,17.4929553 C64.4694812,21.5999721 61.1407403,24.9287131 57.0337234,24.9287131 C52.9267065,24.9287131 49.5979656,21.5999721 49.5979656,17.4929553 C49.5979656,13.3859384 52.9267065,10.0571975 57.0337234,10.0571975 C61.1407403,10.0571975 64.4694812,13.3859384 64.4694812,17.4929553 Z" id="Stroke-19" stroke="#2A5082" stroke-width="2"></path>
                            <polygon id="Fill-20" fill="url(#linearGradient-2)" points="54.5551375 34.8430568 45.8800867 43.5181076 27.2906922 24.9287131 0.0262469504 52.1931583 0.0262469504 62.1075021 79.3409968 62.1075021 79.3409968 57.1503302"></polygon>
                            <polyline id="Stroke-21" stroke="#2A5082" stroke-width="2" points="54.5551375 52.1931583 27.2906922 24.9287131 0.0262469504 52.1931583 0.0262469504 62.1075021 79.3409968 62.1075021 79.3409968 57.1503302 54.5551375 34.8430568 47.1193797 42.2788146"></polyline>
                        </g>
                        <g id="Page-1" transform="translate(93.560459, 116.903470)">
                            <polygon id="Fill-11" fill="#FFFFFF" points="13.4984436 122.021802 179.569027 122.021802 179.569027 0.835160695 13.4984436 0.835160695"></polygon>
                            <polygon id="Stroke-13" stroke="#2A5082" stroke-width="2" points="13.4984436 122.021802 179.569027 122.021802 179.569027 0.835160695 13.4984436 0.835160695"></polygon>
                            <path d="M152.638662,36.7423138 C152.638662,44.1795828 146.610748,50.2074962 139.173479,50.2074962 C131.73621,50.2074962 125.708297,44.1795828 125.708297,36.7423138 C125.708297,29.3050447 131.73621,23.2771314 139.173479,23.2771314 C146.610748,23.2771314 152.638662,29.3050447 152.638662,36.7423138" id="Fill-14" fill="url(#linearGradient-3)" opacity="0.578634511"></path>
                            <path d="M152.638662,36.7423138 C152.638662,44.1795828 146.610748,50.2074962 139.173479,50.2074962 C131.73621,50.2074962 125.708297,44.1795828 125.708297,36.7423138 C125.708297,29.3050447 131.73621,23.2771314 139.173479,23.2771314 C146.610748,23.2771314 152.638662,29.3050447 152.638662,36.7423138 Z" id="Stroke-15" stroke="#2A5082" stroke-width="2"></path>
                            <polygon id="Fill-16" fill="url(#linearGradient-4)" opacity="0.597259964" points="121.219903 68.1610727 105.510523 83.8704522 71.8475673 50.2074962 13.4984436 108.55662 13.4984436 122.021802 175.080632 122.021802"></polygon>
                            <polyline id="Stroke-17" stroke="#2A5082" stroke-width="2" points="121.219903 99.5798316 71.8475673 50.2074962 13.4984436 108.55662 13.4984436 122.021802 175.080632 122.021802 121.219903 68.1610727 107.75472 81.6262551"></polyline>
                            <path d="M130.196691,153.440561 L121.219903,153.440561 C121.219903,148.391118 116.44874,144.463773 112.243115,144.463773 L103.266326,144.463773 C101.547271,141.770737 97.1172263,139.975379 94.289538,139.975379 L85.3127497,139.975379 L85.3127497,104.068226 C85.3127497,99.1130387 81.2911486,95.0914375 76.3359615,95.0914375 C71.3807744,95.0914375 67.3591732,99.1130387 67.3591732,104.068226 L67.3591732,166.905744 L61.3626786,172.659865 L49.6300164,154.47738 C42.4485858,144.58496 31.4520201,150.141592 31.4520201,154.47738 C31.4520201,154.47738 45.0698079,197.929524 47.017771,200.981632 C50.1551585,205.891935 62.8707791,216.928896 62.8707791,220.766473 L62.8707791,238.72005 L130.196691,238.72005 L130.196691,225.254867 C130.196691,219.209001 139.173479,211.892918 139.173479,202.812897 L139.173479,162.41735 C139.173479,157.367906 134.402316,153.440561 130.196691,153.440561" id="Fill-18" fill="#FFFFFF"></path>
                            <path d="M85.3127497,139.975379 L94.289538,139.975379 C97.1172263,139.975379 101.547271,141.770737 103.266326,144.463773 L112.243115,144.463773 C116.44874,144.463773 121.219903,148.391118 121.219903,153.440561 L130.196691,153.440561 C134.406805,153.440561 139.173479,157.367906 139.173479,162.41735 L139.173479,202.812897 C139.173479,211.892918 130.196691,219.209001 130.196691,225.254867 L130.196691,238.72005 L62.8707791,238.72005 L62.8707791,220.766473 C62.8707791,216.928896 50.1551585,205.891935 47.017771,200.981632 C45.0698079,197.929524 31.4520201,154.47738 31.4520201,154.47738 C31.4520201,150.141592 42.4485858,144.58496 49.6300164,154.47738 L61.3626786,172.659865 L67.3591732,166.905744 L67.3591732,104.068226 C67.3591732,99.1130387 71.3807744,95.0914375 76.3359615,95.0914375 C81.2911486,95.0914375 85.3127497,99.1130387 85.3127497,104.068226 L85.3127497,153.440561" id="Stroke-19" stroke="#2A5082" stroke-width="2"></path>
                            <path d="M103.266326,144.463773 L103.266326,157.928955" id="Stroke-20" stroke="#2A5082" stroke-width="2"></path>
                            <path d="M121.219903,153.440561 L121.219903,162.41735" id="Stroke-21" stroke="#2A5082" stroke-width="2"></path>
                            <polygon id="Fill-22" fill="url(#linearGradient-5)" points="53.8939908 256.673626 139.173479 256.673626 139.173479 234.231656 53.8939908 234.231656"></polygon>
                            <polyline id="Stroke-23" stroke="#2A5082" stroke-width="2" points="139.173479 256.673626 139.173479 234.231656 53.8939908 234.231656 53.8939908 256.673626"></polyline>
                            <path d="M67.3591732,252.185232 L80.8243556,252.185232" id="Stroke-24" stroke="#2A5082" stroke-width="2"></path>
                        </g>
                        <g id="Page-1" transform="translate(94.984069, 0.000000)">
                            <path d="M141.79773,110.688604 L42.8141482,110.688604 L27.2595854,110.688604 C12.4205325,110.688604 0.392613364,98.6606848 0.392613364,83.8216319 C0.392613364,68.982579 12.4205325,56.9546598 27.2595854,56.9546598 C29.7539717,56.9546598 32.1578587,57.319485 34.4514496,57.9558081 C34.3807471,57.1611113 34.3298412,56.3579302 34.3298412,55.5406087 C34.3298412,40.7015558 46.3577604,28.6736366 61.1968133,28.6736366 C64.9921266,28.6736366 68.5979571,29.4711615 71.8700715,30.8880407 C75.4249961,13.483899 90.8211852,0.392613364 109.274553,0.392613364 C130.360884,0.392613364 147.453934,17.4856638 147.453934,38.5719947 C147.453934,42.0279358 146.95336,45.3594403 146.093617,48.5438835 C162.58711,49.3159555 175.734957,62.8936747 175.734957,79.5794784 C175.734957,96.7602 161.806553,110.688604 144.625832,110.688604 L141.79773,110.688604 Z" id="Stroke-1" stroke="#2A5082" stroke-width="2" fill="#FFFFFF"></path>
                            <polyline id="Stroke-5" stroke="#2A5082" stroke-width="2" points="71.0951715 82.4075807 71.0951715 68.2670691 119.172911 68.2670691"></polyline>
                            <polygon id="Fill-7" fill="#FFFFFF" points="25.8455343 147.453934 99.3761947 147.453934 99.3761947 90.8918877 25.8455343 90.8918877"></polygon>
                            <polygon id="Stroke-9" stroke="#2A5082" stroke-width="2" points="25.8455343 147.453934 99.3761947 147.453934 99.3761947 90.8918877 25.8455343 90.8918877"></polygon>
                            <g id="Group-12" transform="translate(25.845534, 110.688604)">
                                <polyline id="Fill-10" fill="url(#linearGradient-6)" opacity="0.455276268" points="41.0074837 12.7264605 50.9058418 2.82810232 73.5306604 25.4529209 73.5306604 36.7653302 0 36.7653302 0 25.4529209 25.4529209 0 48.0777395 22.6248186"></polyline>
                                <polyline id="Stroke-11" stroke="#2A5082" stroke-width="2" points="41.0074837 12.7264605 50.9058418 2.82810232 73.5306604 25.4529209 73.5306604 36.7653302 0 36.7653302 0 25.4529209 25.4529209 0 48.0777395 22.6248186"></polyline>
                            </g>
                            <polyline id="Stroke-13" stroke="#2A5082" stroke-width="2" points="107.860502 102.204297 127.657218 102.204297 127.657218 48.4703529 54.1265575 48.4703529 54.1265575 82.4075807"></polyline>
                            <path d="M11.7050227,82.4089948 C11.7050227,74.5977762 18.0343157,68.2684832 25.8455343,68.2656551" id="Stroke-14" stroke="#2A5082" stroke-width="2"></path>
                            <path d="M82.4075807,102.204297 L88.0637854,102.204297" id="Stroke-15" stroke="#2A5082" stroke-width="2"></path>
                        </g>
                    </g>
                </g>
            </g>
        </g>
    </g>
</svg>