<svg xmlns="http://www.w3.org/2000/svg" viewBox="0 0 24 24" enable-background="new 0 0 24 24"><style type="text/css">.st0{fill:#FFFFFF;}</style><path d="M12 .5C5.7.5.5 5.7.5 12S5.7 23.5 12 23.5c3.9 0 7.6-2 9-4.8.5-1 .3-1.7 0-2.1-.4-.6-1.3-1-2.4-1V15c0-.6-.5-1.2-1.2-1.2-.8 0-1.5-.1-2.2-.4-.4-.1-.9 0-1.1.2l-1.4 1c-1.6-.8-2.5-1.8-3.4-3.4l1-1.3c.3-.3.4-.8.3-1.2-.2-.7-.4-1.5-.4-2.2 0-.5-.6-1-1.2-1H6.7c-.7 0-1.2.5-1.2 1.2 0 6.5 5.3 11.8 11.8 11.8.6 0 1.2-.5 1.2-1.2v-.7c.8 0 1.4.2 1.6.6.2.3.2.6-.1 1.1-1.2 2.4-4.6 4.2-8.1 4.2-5.7 0-10.4-4.7-10.4-10.5S6.2 1.5 12 1.5 22.5 6.2 22.5 12c0 .3.2.5.5.5s.5-.2.5-.5C23.5 5.7 18.3.5 12 .5zm5.5 16.8c0 .1-.1.2-.2.2-6 0-10.8-4.9-10.8-10.8 0-.1.1-.2.2-.2H9c.1 0 .2.1.2.2 0 .9.1 1.7.4 2.5 0 0 0 .1-.1.2L8.3 11c-.1.2-.1.4 0 .5 1 2 2.2 3.2 4.2 4.2.2.1.4.1.5 0l1.7-1.3s.1-.1.2 0c.8.3 1.7.4 2.5.4.1 0 .2.1.2.2v2.3z" class="st0"/></svg>