<svg xmlns="http://www.w3.org/2000/svg" width="48" height="48"><g><path fill="#fff" d="M44 40H4c-2.2 0-4-1.8-4-4V12c0-2.2 1.8-4 4-4h40c2.2 0 4 1.8 4 4v24c0 2.2-1.8 4-4 4zM4 10c-1.1 0-2 .9-2 2v24c0 1.1.9 2 2 2h40c1.1 0 2-.9 2-2V12c0-1.1-.9-2-2-2H4zM24 29.2L6.46 17.83c-.47-.3-.6-.92-.3-1.38s.92-.6 1.38-.3L24 26.8l16.46-10.64c.46-.3 1.08-.17 1.38.3s.17 1.08-.3 1.38L24 29.2zM6 34c-.32 0-.64-.16-.83-.45-.3-.45-.18-1.07.28-1.38l9-6c.46-.3 1.08-.2 1.38.27.3.46.2 1.08-.27 1.4l-9 6c-.18.1-.37.16-.56.16zM42 34c-.2 0-.38-.06-.55-.17l-9-6c-.47-.3-.6-.92-.28-1.38.3-.46.92-.6 1.38-.28l9 6c.47.3.6.92.28 1.38-.2.3-.5.45-.83.45z"/></g></svg>