<svg xmlns="http://www.w3.org/2000/svg" xmlns:xlink="http://www.w3.org/1999/xlink" x="0px" y="0px"
	 width="30px" height="30px" viewBox="0 0 30 30" enable-background="new 0 0 30 30" xml:space="preserve">
<path fill="#FFFFFF" d="M5.5,11.41h3.9V25H5.5V11.41z M7.35,9.71H7.33C5.92,9.71,5,8.68,5,7.36C5,6.02,5.94,5,7.38,5
	C8.82,5,9.7,6.02,9.73,7.36C9.73,8.67,8.82,9.71,7.35,9.71L7.35,9.71z M25,25h-4.42v-7.03c0-1.84-0.69-3.09-2.21-3.09
	c-1.16,0-1.81,0.85-2.11,1.67c-0.11,0.29-0.1,0.7-0.1,1.11V25h-4.38c0,0,0.06-12.46,0-13.59h4.38v2.13
	c0.26-0.93,1.66-2.26,3.89-2.26c2.77,0,4.95,1.96,4.95,6.16V25z"/>
</svg>
