<svg xmlns="http://www.w3.org/2000/svg" xmlns:xlink="http://www.w3.org/1999/xlink" x="0px" y="0px"
	 width="30px" height="30px" viewBox="0 0 30 30" enable-background="new 0 0 30 30" xml:space="preserve">
<path fill="#FFFFFF" d="M23.92,8.16c1.01-0.65,1.76-1.64,2.1-2.79c-0.93,0.59-1.96,1-3.04,1.23C22.11,5.61,20.87,5,19.49,5
	c-2.64,0-4.79,2.26-4.79,5.05c0,0.4,0.04,0.78,0.12,1.15c-3.98-0.21-7.5-2.22-9.87-5.28C4.53,6.7,4.31,7.58,4.31,8.46
	c0,1.75,0.84,3.3,2.13,4.2c-0.76-0.03-1.51-0.24-2.17-0.63v0.06c0,2.45,1.65,4.49,3.84,4.95c-0.41,0.12-0.83,0.18-1.26,0.18
	c-0.31,0-0.61-0.03-0.9-0.09c0.61,2.01,2.38,3.47,4.47,3.51C8.78,22,6.72,22.8,4.48,22.8c-0.38,0-0.76-0.02-1.14-0.07
	C5.45,24.16,7.97,25,10.67,25c8.81,0,13.62-7.69,13.62-14.37c0-0.22,0-0.44-0.01-0.65c0.95-0.72,1.75-1.61,2.39-2.61
	C25.8,7.77,24.87,8.04,23.92,8.16z"/>
</svg>
