<svg xmlns="http://www.w3.org/2000/svg" xmlns:xlink="http://www.w3.org/1999/xlink" x="0px" y="0px"
	 width="30px" height="30px" viewBox="0 0 30 30" enable-background="new 0 0 30 30" xml:space="preserve">
<path fill="#FFFFFF" d="M9.52,13.63L9.52,13.63L9.52,13.63L9.52,13.63z M9.52,13.63v3.31l5.45,0.02c-0.79,4.02-6.27,5.34-9.18,2.7
	c-2.99-2.3-2.84-7.37,0.25-9.52c2.16-1.73,5.24-1.3,7.42,0.19c0.86-0.79,1.65-1.64,2.41-2.51c-1.78-1.43-3.99-2.45-6.35-2.35
	c-4.91-0.16-9.42,4.13-9.5,9.06c-0.32,4.02,2.32,7.94,6.05,9.37c3.72,1.43,8.47,0.46,10.85-2.87c1.57-2.11,1.91-4.81,1.71-7.37
	L9.52,13.63z M27.27,13.63V10.9h-2.73v2.73H21.8v2.73h2.73v2.73h2.73v-2.73H30v-2.73H27.27z"/>
</svg>
