<svg version="1.1" id="Layer_1" xmlns="http://www.w3.org/2000/svg" xmlns:xlink="http://www.w3.org/1999/xlink" x="0px" y="0px" viewBox="0 0 682 165" enable-background="new 0 0 682 165" xml:space="preserve">
<g>
	<path fill="#FFFFFF" d="M668.04,3.41c0.49,0,0.74,0.23,0.74,0.68c0,0.16-0.02,0.31-0.07,0.43c-0.05,0.13-0.09,0.21-0.12,0.26h-3.35   v8.56h-1.56V4.78h-2.57c-0.49,0-0.74-0.23-0.74-0.68c0-0.16,0.02-0.31,0.07-0.43c0.05-0.13,0.09-0.21,0.12-0.26H668.04z"/>
	<path fill="#FFFFFF" d="M679.48,13.34c-0.01-0.15-0.03-0.43-0.05-0.84c-0.03-0.41-0.05-0.88-0.08-1.42   c-0.03-0.54-0.06-1.11-0.09-1.71c-0.03-0.6-0.07-1.16-0.09-1.69c-0.03-0.53-0.06-1-0.08-1.4c-0.02-0.4-0.04-0.68-0.05-0.82   c-0.1,0.2-0.22,0.46-0.36,0.77c-0.14,0.31-0.3,0.64-0.48,1c-0.17,0.36-0.35,0.73-0.53,1.12c-0.18,0.39-0.36,0.77-0.54,1.14   s-0.35,0.71-0.51,1.04c-0.16,0.33-0.3,0.61-0.41,0.84h-1.14c-0.17-0.35-0.38-0.78-0.63-1.29c-0.25-0.51-0.5-1.04-0.77-1.6   c-0.26-0.55-0.53-1.1-0.78-1.63c-0.25-0.54-0.48-1-0.67-1.38c-0.01,0.22-0.03,0.54-0.05,0.95c-0.02,0.42-0.05,0.88-0.08,1.39   c-0.03,0.51-0.06,1.04-0.09,1.6c-0.03,0.55-0.06,1.08-0.09,1.59s-0.05,0.97-0.07,1.38c-0.02,0.42-0.04,0.74-0.04,0.97h-1.53   c0.01-0.25,0.03-0.61,0.05-1.09c0.02-0.48,0.05-1.01,0.08-1.59c0.03-0.58,0.06-1.2,0.09-1.84c0.03-0.64,0.07-1.26,0.1-1.84   c0.03-0.59,0.06-1.12,0.09-1.59c0.02-0.47,0.05-0.83,0.07-1.08c0.02-0.29,0.12-0.51,0.3-0.67c0.18-0.15,0.41-0.23,0.69-0.23   c0.28,0,0.52,0.04,0.71,0.12c0.19,0.08,0.34,0.18,0.43,0.28c0.08,0.16,0.18,0.39,0.32,0.67c0.14,0.28,0.29,0.6,0.46,0.95   c0.17,0.35,0.35,0.72,0.54,1.11c0.19,0.39,0.37,0.76,0.55,1.14c0.18,0.37,0.35,0.72,0.51,1.04s0.3,0.6,0.42,0.83   c0.16-0.3,0.35-0.69,0.59-1.19c0.24-0.49,0.48-1,0.74-1.53c0.25-0.53,0.5-1.02,0.72-1.5c0.23-0.47,0.4-0.84,0.53-1.1   c0.12-0.24,0.26-0.44,0.43-0.6c0.17-0.16,0.44-0.24,0.8-0.24c0.28,0,0.5,0.04,0.66,0.11c0.16,0.07,0.26,0.13,0.31,0.17   c0.02,0.27,0.04,0.66,0.07,1.16c0.03,0.51,0.06,1.07,0.09,1.7c0.03,0.63,0.07,1.28,0.11,1.97c0.04,0.68,0.08,1.34,0.12,1.97   c0.04,0.63,0.07,1.19,0.09,1.7c0.02,0.51,0.05,0.89,0.07,1.16H679.48z"/>
	<path fill="#64AFE4" d="M29.6,15.96c0,7.9-6.4,14.3-14.3,14.3c-7.9,0-14.3-6.4-14.3-14.3c0-7.9,6.4-14.3,14.3-14.3   C23.2,1.65,29.6,8.06,29.6,15.96"/>
	<path fill="#FFFFFF" d="M85.31,59.44c0-8.3,2.55-14.73,7.65-19.28c5.09-4.55,12.16-6.83,21.18-6.83c5.68,0,10.3,0.79,13.87,2.37   c3.56,1.58,5.35,3.99,5.35,7.24c0,1.53-0.43,3.02-1.29,4.46c-0.86,1.45-1.56,2.35-2.1,2.71c-1.54-0.72-3.43-1.4-5.68-2.03   c-2.26-0.63-4.83-0.95-7.71-0.95c-10.56,0-15.83,5.6-15.83,16.78v39.24H85.31V59.44z"/>
	<path fill="#FFFFFF" d="M146.61,4.77c2.62,0,4.82,0.9,6.63,2.71c1.8,1.81,2.71,4.02,2.71,6.63c0,2.62-0.9,4.83-2.71,6.63   c-1.81,1.81-4.02,2.71-6.63,2.71c-2.62,0-4.83-0.9-6.63-2.71c-1.81-1.8-2.71-4.01-2.71-6.63c0-2.61,0.9-4.82,2.71-6.63   C141.78,5.67,143.99,4.77,146.61,4.77 M138.9,42.39c0-2.52,0.72-4.35,2.16-5.48c1.44-1.13,3.47-1.69,6.09-1.69   c1.62,0,3.11,0.2,4.47,0.61c1.35,0.41,2.25,0.7,2.71,0.88v66.44H138.9V42.39z"/>
	<path fill="#FFFFFF" d="M189.23,103.15c-4.24-7.85-8.12-15.22-11.64-22.12c-3.52-6.9-6.54-13.06-9.07-18.47   c-2.53-5.41-4.47-9.92-5.82-13.53c-1.35-3.61-2.03-5.95-2.03-7.04c0-1.89,0.63-3.5,1.9-4.8c1.26-1.31,3.2-1.96,5.82-1.96   c1.89,0,3.45,0.18,4.67,0.54c1.22,0.36,1.92,0.63,2.1,0.81c1.8,4.87,3.74,9.81,5.82,14.82c2.07,5.01,4.13,9.74,6.16,14.21   c2.03,4.47,3.92,8.53,5.68,12.18c1.76,3.66,3.22,6.66,4.4,9c1.71-3.25,3.56-7.08,5.55-11.5c1.98-4.42,3.9-8.8,5.75-13.13   c1.85-4.33,3.52-8.28,5.01-11.84c1.49-3.56,2.55-6.16,3.18-7.78c0.9-2.25,1.98-4.04,3.25-5.35c1.26-1.31,3.25-1.96,5.95-1.96   c2.52,0,4.58,0.43,6.16,1.29c1.58,0.86,2.46,1.38,2.64,1.56c-0.54,1.89-1.47,4.49-2.77,7.78c-1.31,3.29-2.89,6.97-4.74,11.03   c-1.85,4.06-3.84,8.3-5.95,12.72c-2.12,4.42-4.22,8.73-6.29,12.92c-2.08,4.19-4.04,8.1-5.89,11.7c-1.85,3.61-3.41,6.59-4.67,8.93   H189.23z"/>
	<path fill="#FFFFFF" d="M300.06,98.14c-0.72,0.45-1.85,1.08-3.38,1.9c-1.53,0.81-3.45,1.58-5.75,2.3c-2.3,0.72-4.96,1.35-7.98,1.89   c-3.03,0.54-6.34,0.81-9.95,0.81c-5.05,0-9.77-0.77-14.14-2.3c-4.38-1.53-8.21-3.81-11.5-6.83s-5.89-6.72-7.78-11.1   c-1.89-4.37-2.84-9.4-2.84-15.09c0-5.41,0.92-10.35,2.77-14.82c1.85-4.47,4.42-8.3,7.71-11.5c3.29-3.2,7.17-5.68,11.64-7.44   c4.47-1.76,9.36-2.64,14.68-2.64c4.69,0,8.84,0.61,12.45,1.83c3.61,1.22,6.65,2.84,9.13,4.87c2.48,2.03,4.35,4.4,5.62,7.1   c1.26,2.71,1.89,5.6,1.89,8.66c0,3.16-0.59,6.02-1.76,8.59c-1.17,2.57-3.25,4.78-6.23,6.63c-2.98,1.85-6.99,3.29-12.04,4.33   c-5.05,1.04-11.46,1.56-19.21,1.56c-1.81,0-3.5-0.02-5.07-0.07s-3.27-0.11-5.07-0.2c0.72,4.6,2.95,8.32,6.7,11.16   c3.74,2.84,9.09,4.27,16.03,4.27c2.35,0,4.51-0.18,6.5-0.54c1.98-0.36,3.76-0.81,5.34-1.35c1.58-0.54,2.93-1.08,4.06-1.62   c1.13-0.54,1.96-0.95,2.5-1.22L300.06,98.14z M252.56,66.07c2.07,0.09,4.06,0.14,5.95,0.14h5.68c4.96,0,8.98-0.32,12.04-0.95   c3.07-0.63,5.46-1.44,7.17-2.44c1.71-0.99,2.84-2.12,3.38-3.38c0.54-1.26,0.81-2.57,0.81-3.93c0-3.43-1.38-6-4.13-7.71   c-2.75-1.71-6.16-2.57-10.22-2.57c-3.34,0-6.27,0.59-8.79,1.76c-2.53,1.17-4.65,2.73-6.36,4.67c-1.72,1.94-3.04,4.17-3.99,6.7   C253.17,60.88,252.65,63.45,252.56,66.07"/>
	<path fill="#FFFFFF" d="M310.75,59.44c0-8.3,2.55-14.73,7.65-19.28c5.09-4.55,12.16-6.83,21.18-6.83c5.68,0,10.3,0.79,13.87,2.37   c3.56,1.58,5.34,3.99,5.34,7.24c0,1.54-0.43,3.02-1.29,4.46c-0.86,1.45-1.55,2.35-2.09,2.71c-1.54-0.72-3.43-1.4-5.68-2.03   c-2.25-0.63-4.83-0.95-7.71-0.95c-10.55,0-15.83,5.6-15.83,16.78v39.24h-15.43V59.44z"/>
	<path fill="#FFFFFF" d="M364.07,86.23c0.63,0.46,1.76,1.04,3.38,1.76c1.62,0.72,3.63,1.47,6.02,2.23c2.39,0.77,5.12,1.42,8.19,1.96   c3.06,0.54,6.4,0.81,10.01,0.81c4.69,0,8.53-0.61,11.5-1.83c2.98-1.22,4.46-3.32,4.46-6.29c0-2.52-0.95-4.44-2.84-5.75   c-1.89-1.31-5.28-2.23-10.15-2.77l-10.55-1.22c-3.61-0.36-6.92-1.01-9.95-1.96c-3.03-0.95-5.62-2.23-7.78-3.86   s-3.86-3.63-5.07-6.02c-1.22-2.39-1.83-5.25-1.83-8.59c0-2.89,0.56-5.62,1.69-8.19c1.13-2.57,2.91-4.85,5.34-6.83   c2.44-1.98,5.62-3.54,9.54-4.67c3.92-1.13,8.68-1.69,14.28-1.69c9.38,0,16.67,1.04,21.86,3.11c5.19,2.08,7.78,4.78,7.78,8.12   c0,1.08-0.2,2.03-0.61,2.84s-0.86,1.54-1.35,2.16c-0.5,0.63-1.02,1.15-1.56,1.56c-0.54,0.41-0.95,0.65-1.22,0.74   c-0.36-0.36-1.15-0.92-2.37-1.69c-1.22-0.77-2.87-1.53-4.94-2.3c-2.08-0.77-4.56-1.44-7.44-2.03c-2.89-0.58-6.23-0.88-10.01-0.88   c-10.47,0-15.7,2.75-15.7,8.26c0,2.35,0.99,4.13,2.98,5.34c1.98,1.22,4.83,2.05,8.53,2.5l13.8,1.76c7.49,0.99,13.3,3.04,17.45,6.16   c4.15,3.11,6.23,7.69,6.23,13.74c0,6.77-2.68,12.18-8.05,16.24c-5.37,4.06-13.1,6.09-23.21,6.09c-4.87,0-9.29-0.36-13.26-1.08   c-3.97-0.72-7.42-1.56-10.35-2.5c-2.93-0.95-5.3-1.87-7.1-2.77c-1.81-0.9-2.98-1.58-3.52-2.03L364.07,86.23z"/>
	<path fill="#FFFFFF" d="M494.38,102.88c-0.9,0.18-2.33,0.38-4.26,0.61c-1.94,0.22-4.22,0.45-6.83,0.68   c-2.62,0.22-5.55,0.43-8.8,0.61c-3.25,0.18-6.63,0.27-10.15,0.27c-7.04,0-12.79-0.61-17.25-1.83c-4.46-1.21-7.98-2.84-10.55-4.87   c-2.57-2.03-4.33-4.38-5.28-7.04c-0.95-2.66-1.42-5.39-1.42-8.19c0-3.7,0.56-6.94,1.69-9.74c1.13-2.8,2.98-5.14,5.55-7.04   c2.57-1.89,5.93-3.32,10.08-4.26c4.15-0.95,9.2-1.42,15.16-1.42c3.43,0,6.67,0.11,9.74,0.34c3.07,0.23,5.37,0.43,6.9,0.61   c0-3.16-0.52-5.77-1.56-7.85c-1.04-2.07-2.46-3.7-4.26-4.87c-1.81-1.17-3.97-1.98-6.49-2.44c-2.53-0.45-5.32-0.68-8.39-0.68   c-5.14,0-9.27,0.59-12.38,1.76c-3.11,1.17-5.16,2.17-6.16,2.98c-0.54-0.45-1.28-1.31-2.23-2.57c-0.95-1.26-1.42-2.8-1.42-4.6   c0-1.26,0.34-2.5,1.01-3.72c0.68-1.22,1.87-2.3,3.59-3.25c1.71-0.95,4.01-1.69,6.9-2.23c2.88-0.54,6.54-0.81,10.96-0.81   c5.32,0,10.17,0.52,14.55,1.56c4.38,1.04,8.14,2.69,11.3,4.94c3.16,2.26,5.61,5.23,7.37,8.93c1.76,3.7,2.64,8.17,2.64,13.4V102.88z    M479.08,72.84c-0.9-0.18-2.59-0.45-5.07-0.81c-2.48-0.36-6.2-0.54-11.16-0.54c-6.14,0-10.6,0.93-13.4,2.77   c-2.8,1.85-4.2,4.76-4.2,8.73c0,1.63,0.29,3.11,0.88,4.47c0.59,1.35,1.6,2.5,3.04,3.45s3.41,1.67,5.89,2.17   c2.48,0.49,5.57,0.74,9.27,0.74c4.15,0,7.44-0.16,9.88-0.47c2.43-0.32,4.06-0.56,4.87-0.75V72.84z"/>
	<path fill="#FFFFFF" d="M506.82,62.15c0-4.51,0.83-8.55,2.5-12.11c1.67-3.56,3.97-6.58,6.9-9.07c2.93-2.48,6.4-4.37,10.42-5.68   c4.01-1.31,8.41-1.96,13.19-1.96c4.78,0,9.2,0.66,13.26,1.96c4.06,1.31,7.56,3.2,10.49,5.68c2.93,2.48,5.21,5.5,6.83,9.07   c1.62,3.56,2.44,7.6,2.44,12.11v41h-15.43V66.07c0-6.13-1.49-10.8-4.46-14c-2.98-3.2-7.35-4.8-13.13-4.8   c-5.87,0-10.26,1.6-13.19,4.8c-2.93,3.2-4.4,7.87-4.4,14v37.08h-15.43L506.82,62.15z"/>
	<path fill="#FFFFFF" d="M640.25,10.59c0-2.44,0.7-4.24,2.1-5.41c1.4-1.17,3.41-1.76,6.02-1.76c1.62,0,3.11,0.2,4.46,0.61   c1.35,0.41,2.25,0.7,2.71,0.88v61.03c0,6.59-0.93,12.31-2.78,17.19c-1.85,4.87-4.4,8.93-7.65,12.18c-3.25,3.25-7.08,5.68-11.5,7.3   c-4.42,1.63-9.25,2.44-14.48,2.44c-5.32,0-10.22-0.9-14.68-2.71c-4.47-1.8-8.32-4.28-11.57-7.44c-3.25-3.16-5.8-6.95-7.64-11.37   c-1.85-4.42-2.77-9.2-2.77-14.34c0-5.23,0.88-10.04,2.64-14.41c1.76-4.37,4.2-8.16,7.31-11.37c3.11-3.2,6.77-5.68,10.96-7.44   c4.2-1.76,8.77-2.64,13.74-2.64c5.23,0,9.83,1.01,13.8,3.04c3.97,2.03,7.08,4.49,9.34,7.37V10.59z M640.25,69.18   c0-3.07-0.52-5.96-1.56-8.66c-1.04-2.71-2.46-5.05-4.26-7.04c-1.81-1.98-3.99-3.54-6.56-4.67c-2.57-1.13-5.39-1.69-8.46-1.69   c-3.16,0-6,0.57-8.53,1.69c-2.52,1.13-4.71,2.66-6.56,4.6c-1.85,1.94-3.27,4.26-4.26,6.97c-0.99,2.71-1.49,5.64-1.49,8.8   c0,3.16,0.5,6.07,1.49,8.73c0.99,2.66,2.41,4.96,4.26,6.9c1.85,1.94,4.04,3.47,6.56,4.6c2.53,1.13,5.37,1.69,8.53,1.69   c3.07,0,5.88-0.54,8.46-1.62c2.57-1.08,4.76-2.57,6.56-4.46c1.8-1.89,3.23-4.2,4.26-6.9C639.73,75.41,640.25,72.43,640.25,69.18"/>
	<path fill="#6DB253" d="M29.6,47.03c0,7.9-6.4,14.3-14.3,14.3c-7.9,0-14.3-6.4-14.3-14.3c0-7.9,6.4-14.3,14.3-14.3   C23.2,32.73,29.6,39.13,29.6,47.03"/>
	<path fill="#715EA3" d="M29.6,78.11c0,7.9-6.4,14.3-14.3,14.3C7.4,92.41,1,86,1,78.11c0-7.9,6.4-14.3,14.3-14.3   C23.2,63.81,29.6,70.21,29.6,78.11"/>
	<path fill="#DD8C2F" d="M63.47,47.03c0,7.9-6.4,14.3-14.3,14.3c-7.9,0-14.3-6.4-14.3-14.3c0-7.9,6.4-14.3,14.3-14.3   C57.07,32.73,63.47,39.13,63.47,47.03"/>
	<path fill="#ECD234" d="M63.47,78.11c0,7.9-6.4,14.3-14.3,14.3c-7.9,0-14.3-6.4-14.3-14.3c0-7.9,6.4-14.3,14.3-14.3   C57.07,63.81,63.47,70.21,63.47,78.11"/>
	<path fill="#CB254C" d="M63.47,109.18c0,7.9-6.4,14.3-14.3,14.3c-7.9,0-14.3-6.4-14.3-14.3c0-7.9,6.4-14.3,14.3-14.3   C57.07,94.88,63.47,101.28,63.47,109.18"/>
	<path fill="#FFFFFF" d="M327.73,162.7v-28.08c0-0.46,0.12-0.84,0.37-1.13c0.24-0.29,0.65-0.43,1.23-0.43c0.29,0,0.55,0.04,0.8,0.11   c0.24,0.07,0.44,0.15,0.58,0.24v12.88c0.81-0.72,1.83-1.61,3.07-2.66c1.24-1.05,2.53-2.14,3.87-3.26c1.34-1.12,2.64-2.2,3.89-3.24   s2.27-1.89,3.05-2.55c0.6-0.52,1.11-0.9,1.51-1.14c0.4-0.24,0.94-0.37,1.6-0.37c0.49,0,0.9,0.13,1.23,0.39   c0.33,0.26,0.55,0.46,0.67,0.61c-0.17,0.14-0.63,0.52-1.36,1.12c-0.73,0.6-1.63,1.33-2.68,2.18s-2.18,1.77-3.39,2.77   c-1.21,0.99-2.38,1.95-3.5,2.87s-2.12,1.75-3,2.48c-0.88,0.73-1.52,1.27-1.92,1.62c1.58,1.18,3.15,2.42,4.71,3.72   c1.55,1.3,3.05,2.61,4.47,3.95c1.43,1.34,2.77,2.68,4.02,4.02c1.25,1.34,2.38,2.64,3.39,3.91h-3.8c-0.75-0.86-1.69-1.88-2.83-3.04   c-1.14-1.17-2.4-2.38-3.78-3.65c-1.38-1.27-2.85-2.54-4.41-3.82c-1.56-1.28-3.15-2.49-4.8-3.61v14.13H327.73z"/>
	<path fill="#FFFFFF" d="M371.37,162.7v-11.92c0-2.42-0.6-4.29-1.79-5.6s-3.13-1.96-5.81-1.96c-0.86,0-1.65,0.05-2.35,0.15   c-0.71,0.1-1.32,0.22-1.84,0.35c-0.52,0.13-0.93,0.26-1.23,0.39s-0.5,0.21-0.58,0.24v18.36h-2.85v-20.26   c0.09-0.03,0.37-0.14,0.84-0.32c0.47-0.19,1.12-0.38,1.92-0.58c0.81-0.2,1.76-0.38,2.85-0.54s2.31-0.24,3.63-0.24   c1.58,0,3,0.22,4.23,0.65c1.24,0.43,2.29,1.04,3.15,1.82c0.86,0.78,1.53,1.7,1.99,2.76c0.46,1.07,0.69,2.23,0.69,3.5v13.22H371.37z   "/>
	<path fill="#FFFFFF" d="M402.82,152.03c0,1.64-0.28,3.16-0.84,4.54c-0.56,1.38-1.33,2.57-2.31,3.56c-0.98,0.99-2.14,1.77-3.5,2.33   c-1.35,0.56-2.82,0.84-4.41,0.84c-1.58,0-3.05-0.28-4.41-0.84c-1.35-0.56-2.52-1.34-3.5-2.33c-0.98-0.99-1.75-2.18-2.31-3.56   c-0.56-1.38-0.84-2.89-0.84-4.54s0.28-3.15,0.84-4.54c0.56-1.38,1.33-2.57,2.31-3.56c0.98-0.99,2.15-1.77,3.5-2.33   c1.35-0.56,2.82-0.84,4.41-0.84c1.58,0,3.05,0.28,4.41,0.84c1.36,0.56,2.52,1.34,3.5,2.33c0.98,0.99,1.75,2.18,2.31,3.56   C402.54,148.87,402.82,150.38,402.82,152.03 M383.77,152.03c0,1.33,0.19,2.53,0.56,3.61c0.37,1.08,0.92,2.01,1.62,2.79   c0.71,0.78,1.55,1.38,2.53,1.81c0.98,0.43,2.07,0.65,3.28,0.65s2.3-0.21,3.28-0.65c0.98-0.43,1.82-1.04,2.53-1.81   c0.71-0.78,1.24-1.71,1.62-2.79c0.38-1.08,0.56-2.28,0.56-3.61c0-1.32-0.19-2.53-0.56-3.61c-0.38-1.08-0.91-2.01-1.62-2.79   s-1.55-1.38-2.53-1.81c-0.98-0.43-2.07-0.65-3.28-0.65s-2.31,0.22-3.28,0.65c-0.98,0.43-1.82,1.04-2.53,1.81   c-0.71,0.78-1.25,1.71-1.62,2.79C383.96,149.5,383.77,150.7,383.77,152.03"/>
	<path fill="#FFFFFF" d="M414.92,160.15c0.43-1.29,0.86-2.59,1.28-3.89c0.42-1.3,0.85-2.63,1.3-4c0.45-1.37,0.9-2.81,1.36-4.32   c0.46-1.51,0.95-3.14,1.47-4.9c0.2-0.66,0.47-1.11,0.8-1.34c0.33-0.23,0.78-0.35,1.36-0.35c0.4,0,0.74,0.05,1.02,0.15   c0.27,0.1,0.45,0.18,0.54,0.24c0.35,1.3,0.77,2.73,1.27,4.3c0.5,1.57,1.02,3.18,1.56,4.82c0.53,1.64,1.07,3.27,1.62,4.88   c0.55,1.61,1.04,3.11,1.47,4.49c1.04-2.94,2.08-5.9,3.13-8.88c1.05-2.98,1.97-5.91,2.74-8.79c0.11-0.4,0.29-0.71,0.52-0.91   s0.59-0.3,1.08-0.3c0.4,0,0.73,0.07,0.99,0.22c0.26,0.14,0.42,0.24,0.47,0.3c-0.26,1.06-0.66,2.43-1.21,4.08   c-0.55,1.66-1.16,3.44-1.84,5.36c-0.68,1.92-1.39,3.86-2.14,5.83c-0.75,1.97-1.47,3.82-2.16,5.55h-3.46   c-0.29-0.75-0.68-1.82-1.17-3.22c-0.49-1.4-1.01-2.93-1.55-4.6c-0.55-1.67-1.1-3.39-1.66-5.16c-0.56-1.77-1.06-3.39-1.49-4.86   c-0.43,1.61-0.92,3.3-1.45,5.05c-0.53,1.76-1.07,3.45-1.6,5.08c-0.53,1.63-1.03,3.12-1.49,4.47c-0.46,1.36-0.83,2.44-1.12,3.24   h-3.46c-0.69-1.79-1.4-3.67-2.12-5.66c-0.72-1.99-1.38-3.83-1.99-5.53c-0.6-1.7-1.12-3.15-1.53-4.37   c-0.42-1.21-0.67-1.93-0.76-2.16c-0.12-0.32-0.24-0.68-0.37-1.08c-0.13-0.4-0.19-0.75-0.19-1.04c0-0.4,0.13-0.76,0.39-1.06   c0.26-0.3,0.65-0.46,1.17-0.46c0.32,0,0.58,0.03,0.78,0.09c0.2,0.06,0.33,0.1,0.39,0.13c0.32,1.27,0.71,2.69,1.19,4.26   c0.48,1.57,0.99,3.18,1.56,4.84c0.56,1.66,1.13,3.31,1.71,4.95C413.9,157.25,414.43,158.77,414.92,160.15"/>
	<path fill="#FFFFFF" d="M477.31,133.66c-0.32,0.55-0.73,1.25-1.23,2.1c-0.5,0.85-1.08,1.79-1.73,2.81   c-0.65,1.02-1.33,2.1-2.05,3.24c-0.72,1.14-1.46,2.27-2.23,3.39c-0.76,1.12-1.51,2.21-2.25,3.26c-0.73,1.05-1.43,2-2.1,2.83v11.41   h-3.02v-11.49c-0.75-0.92-1.61-2.04-2.57-3.35s-1.93-2.64-2.89-4c-0.96-1.36-1.86-2.64-2.7-3.85c-0.84-1.21-1.49-2.16-1.94-2.85   c-0.46-0.66-0.81-1.21-1.06-1.64c-0.25-0.43-0.37-0.81-0.37-1.13c0-0.32,0.1-0.62,0.3-0.91c0.2-0.29,0.58-0.43,1.12-0.43   c0.32,0,0.56,0.04,0.74,0.11c0.17,0.07,0.32,0.14,0.43,0.2c0.43,0.63,1.05,1.57,1.86,2.81c0.81,1.24,1.71,2.58,2.7,4.04   c0.99,1.46,2.02,2.93,3.07,4.43c1.05,1.5,2.05,2.82,3,3.98c1.04-1.38,2.05-2.85,3.05-4.38c0.99-1.54,1.91-3,2.74-4.37   c0.83-1.37,1.56-2.57,2.18-3.61c0.62-1.04,1.09-1.76,1.4-2.16c0.26-0.32,0.53-0.57,0.8-0.76c0.27-0.19,0.64-0.28,1.1-0.28   c0.49,0,0.87,0.08,1.14,0.26C477.09,133.49,477.25,133.61,477.31,133.66"/>
	<path fill="#FFFFFF" d="M499.3,152.03c0,1.64-0.28,3.16-0.84,4.54c-0.56,1.38-1.33,2.57-2.31,3.56c-0.98,0.99-2.15,1.77-3.5,2.33   c-1.35,0.56-2.82,0.84-4.41,0.84c-1.59,0-3.05-0.28-4.41-0.84c-1.35-0.56-2.52-1.34-3.5-2.33c-0.98-0.99-1.75-2.18-2.31-3.56   c-0.56-1.38-0.84-2.89-0.84-4.54s0.28-3.15,0.84-4.54c0.56-1.38,1.33-2.57,2.31-3.56c0.98-0.99,2.15-1.77,3.5-2.33   c1.35-0.56,2.82-0.84,4.41-0.84c1.58,0,3.05,0.28,4.41,0.84c1.35,0.56,2.52,1.34,3.5,2.33c0.98,0.99,1.75,2.18,2.31,3.56   C499.02,148.87,499.3,150.38,499.3,152.03 M480.25,152.03c0,1.33,0.19,2.53,0.56,3.61c0.37,1.08,0.91,2.01,1.62,2.79   c0.71,0.78,1.55,1.38,2.53,1.81c0.98,0.43,2.07,0.65,3.28,0.65s2.3-0.21,3.28-0.65c0.98-0.43,1.82-1.04,2.53-1.81   c0.71-0.78,1.24-1.71,1.62-2.79c0.38-1.08,0.56-2.28,0.56-3.61c0-1.32-0.19-2.53-0.56-3.61c-0.38-1.08-0.91-2.01-1.62-2.79   s-1.55-1.38-2.53-1.81c-0.98-0.43-2.07-0.65-3.28-0.65s-2.31,0.22-3.28,0.65c-0.98,0.43-1.82,1.04-2.53,1.81   c-0.71,0.78-1.25,1.71-1.62,2.79C480.44,149.5,480.25,150.7,480.25,152.03"/>
	<path fill="#FFFFFF" d="M521.86,142.82c0-0.43,0.12-0.79,0.37-1.06c0.24-0.27,0.64-0.41,1.19-0.41c0.26,0,0.51,0.04,0.75,0.11   c0.25,0.07,0.42,0.14,0.54,0.2v21.04c-0.29,0.06-0.7,0.12-1.23,0.2c-0.53,0.07-1.14,0.14-1.81,0.22c-0.68,0.07-1.41,0.13-2.2,0.17   c-0.79,0.04-1.58,0.06-2.36,0.06c-2.65,0-4.76-0.37-6.33-1.1c-1.57-0.73-2.79-1.78-3.65-3.13c-0.89-1.5-1.34-3.39-1.34-5.66v-10.63   c0-0.43,0.12-0.79,0.37-1.06c0.24-0.27,0.64-0.41,1.19-0.41c0.26,0,0.51,0.04,0.76,0.11c0.24,0.07,0.42,0.14,0.54,0.2v11.49   c0,1.29,0.14,2.43,0.43,3.39c0.29,0.97,0.77,1.76,1.45,2.4c0.68,0.63,1.56,1.11,2.64,1.43c1.08,0.32,2.41,0.47,4,0.47   c1.21,0,2.24-0.05,3.09-0.15c0.85-0.1,1.39-0.18,1.62-0.24V142.82z"/>
	<path fill="#FFFFFF" d="M540.39,143.17c-0.84,0-1.57,0.07-2.2,0.2c-0.63,0.13-1.16,0.27-1.58,0.43c-0.42,0.16-0.75,0.32-0.99,0.47   c-0.24,0.16-0.4,0.27-0.45,0.32v18.1h-2.85v-19.4c0.09-0.06,0.31-0.22,0.67-0.5c0.36-0.27,0.88-0.56,1.56-0.86s1.5-0.58,2.46-0.82   c0.96-0.25,2.08-0.37,3.35-0.37c1.47,0,2.58,0.09,3.33,0.28c0.75,0.19,1.28,0.4,1.6,0.63c0.46,0.29,0.69,0.69,0.69,1.21   c0,0.32-0.07,0.6-0.22,0.86c-0.14,0.26-0.29,0.45-0.43,0.56c-0.34-0.23-0.93-0.47-1.75-0.73   C542.75,143.3,541.69,143.17,540.39,143.17"/>
	<path fill="#FFFFFF" d="M586.67,147.84c0,2.25-0.36,4.28-1.08,6.11c-0.72,1.83-1.76,3.39-3.11,4.69s-3,2.3-4.93,3   c-1.93,0.71-4.12,1.06-6.57,1.06h-9.85v-27.91c0-0.52,0.16-0.94,0.47-1.25c0.32-0.32,0.81-0.47,1.47-0.47h7.48   c0.83,0,1.72,0.04,2.66,0.13c0.94,0.09,1.78,0.2,2.53,0.35c1.64,0.35,3.14,0.92,4.49,1.73s2.51,1.81,3.46,3.02   c0.95,1.21,1.68,2.62,2.2,4.21C586.41,144.1,586.67,145.88,586.67,147.84 M583.47,147.79c0-1.61-0.21-3.08-0.63-4.41   c-0.42-1.32-0.99-2.48-1.73-3.48c-0.73-0.99-1.63-1.81-2.68-2.46s-2.2-1.1-3.44-1.36c-0.75-0.14-1.51-0.26-2.29-0.35   s-1.58-0.13-2.42-0.13h-6.18v24.54h6.61c2.04,0,3.86-0.3,5.44-0.91c1.58-0.61,2.92-1.45,4-2.53c1.08-1.08,1.9-2.38,2.46-3.91   C583.19,151.28,583.47,149.61,583.47,147.79"/>
	<path fill="#FFFFFF" d="M600.92,143.13c-1.64,0-2.92,0.21-3.82,0.63c-0.91,0.42-1.55,0.8-1.92,1.14c-0.2-0.14-0.38-0.35-0.54-0.63   c-0.16-0.27-0.24-0.57-0.24-0.88s0.08-0.59,0.24-0.82c0.16-0.23,0.35-0.43,0.58-0.61c0.29-0.23,0.87-0.49,1.73-0.78   c0.86-0.29,2.13-0.43,3.8-0.43c3.46,0,6.06,0.71,7.82,2.12c1.76,1.41,2.64,3.69,2.64,6.82v12.92c-0.84,0.14-1.96,0.29-3.37,0.45   c-1.41,0.16-3.28,0.24-5.62,0.24c-2.22,0-3.98-0.21-5.29-0.65c-1.31-0.43-2.31-0.98-3-1.64c-0.69-0.66-1.14-1.4-1.34-2.22   c-0.2-0.82-0.3-1.62-0.3-2.4c0-0.98,0.15-1.9,0.45-2.76c0.3-0.87,0.82-1.62,1.56-2.27c0.73-0.65,1.73-1.15,2.98-1.51   c1.25-0.36,2.82-0.54,4.69-0.54c0.63,0,1.28,0.01,1.94,0.04s1.28,0.06,1.86,0.09c0.58,0.03,1.09,0.06,1.56,0.09   c0.46,0.03,0.82,0.04,1.08,0.04v-0.09c0-2.07-0.58-3.65-1.73-4.73C605.52,143.67,603.6,143.13,600.92,143.13 M608.4,152.03   c-0.14-0.03-0.43-0.06-0.86-0.11c-0.43-0.04-0.94-0.09-1.51-0.13c-0.58-0.04-1.2-0.08-1.88-0.11c-0.68-0.03-1.32-0.04-1.92-0.04   c-2.16,0-3.88,0.35-5.14,1.04c-1.27,0.69-1.9,1.93-1.9,3.71c0,1.56,0.52,2.72,1.56,3.5c1.04,0.78,2.89,1.17,5.57,1.17   c1.84,0,3.24-0.07,4.19-0.22c0.95-0.14,1.58-0.27,1.9-0.39V152.03z"/>
	<path fill="#FFFFFF" d="M620.15,135.74c0-0.43,0.12-0.78,0.37-1.06c0.24-0.27,0.64-0.41,1.19-0.41c0.26,0,0.51,0.04,0.76,0.11   c0.24,0.07,0.42,0.14,0.54,0.2v6.78h6.48c0.4,0,0.74,0.09,1.02,0.28s0.41,0.51,0.41,0.97c0,0.32-0.05,0.58-0.15,0.8   c-0.1,0.21-0.18,0.37-0.24,0.46H623v12.74c0,1.59,0.35,2.69,1.04,3.33c0.69,0.63,1.64,0.95,2.85,0.95c1.01,0,1.84-0.17,2.51-0.52   c0.66-0.35,1.11-0.59,1.34-0.74l1.25,1.86c-0.17,0.14-0.41,0.32-0.71,0.52c-0.3,0.2-0.68,0.4-1.15,0.61s-1,0.37-1.62,0.5   c-0.62,0.13-1.32,0.19-2.1,0.19c-1.09,0-2.04-0.16-2.83-0.47s-1.44-0.75-1.94-1.3c-0.5-0.55-0.88-1.2-1.12-1.95   c-0.25-0.75-0.37-1.54-0.37-2.38v-13.35h-2.64c-0.4,0-0.74-0.09-1.02-0.28c-0.27-0.19-0.41-0.51-0.41-0.97   c0-0.32,0.05-0.58,0.15-0.8c0.1-0.22,0.18-0.37,0.24-0.46h3.67V135.74z"/>
	<path fill="#FFFFFF" d="M642.7,143.13c-1.64,0-2.92,0.21-3.82,0.63s-1.55,0.8-1.92,1.14c-0.2-0.14-0.38-0.35-0.54-0.63   c-0.16-0.27-0.24-0.57-0.24-0.88s0.08-0.59,0.24-0.82c0.16-0.23,0.35-0.43,0.58-0.61c0.29-0.23,0.87-0.49,1.73-0.78   s2.13-0.43,3.8-0.43c3.46,0,6.06,0.71,7.82,2.12c1.76,1.41,2.63,3.69,2.63,6.82v12.92c-0.84,0.14-1.96,0.29-3.37,0.45   s-3.28,0.24-5.62,0.24c-2.22,0-3.98-0.21-5.29-0.65c-1.31-0.43-2.31-0.98-3-1.64c-0.69-0.66-1.14-1.4-1.34-2.22   c-0.2-0.82-0.3-1.62-0.3-2.4c0-0.98,0.15-1.9,0.45-2.76c0.3-0.87,0.82-1.62,1.55-2.27c0.74-0.65,1.73-1.15,2.98-1.51   c1.25-0.36,2.82-0.54,4.69-0.54c0.63,0,1.28,0.01,1.94,0.04c0.66,0.03,1.28,0.06,1.86,0.09c0.58,0.03,1.09,0.06,1.56,0.09   c0.46,0.03,0.82,0.04,1.08,0.04v-0.09c0-2.07-0.58-3.65-1.73-4.73C647.3,143.67,645.38,143.13,642.7,143.13 M650.18,152.03   c-0.15-0.03-0.43-0.06-0.87-0.11c-0.43-0.04-0.94-0.09-1.51-0.13s-1.2-0.08-1.88-0.11c-0.68-0.03-1.32-0.04-1.92-0.04   c-2.16,0-3.87,0.35-5.14,1.04c-1.27,0.69-1.9,1.93-1.9,3.71c0,1.56,0.52,2.72,1.56,3.5c1.04,0.78,2.89,1.17,5.57,1.17   c1.84,0,3.24-0.07,4.19-0.22c0.95-0.14,1.58-0.27,1.9-0.39V152.03z"/>
</g>
</svg>